<?xml version="1.0" encoding="utf-8"?><svg xmlns="http://www.w3.org/2000/svg" xmlns:xlink="http://www.w3.org/1999/xlink" width="1920" height="929" preserveAspectRatio="xMidYMid" viewBox="0 0 1920 929" style="z-index:1;margin-right:-2px;display:block;background-repeat-y:initial;background-repeat-x:initial;background-color:rgb(255, 255, 255);animation-play-state:paused" ><g transform="translate(960,464.5) scale(1,1) translate(-960,-464.5)" style="transform:matrix(1, 0, 0, 1, 0, 0);animation-play-state:paused" ><linearGradient id="lg-0.9552540684099136" x1="0" x2="1" y1="0" y2="0" style="animation-play-state:paused" ><stop stop-color="#ff00ff" offset="0" style="animation-play-state:paused" ></stop>

  
<stop stop-color="#00ffff" offset="1" style="animation-play-state:paused" ></stop></linearGradient>
<path d="M 0 0 L 0 774.503 Q 192 742.349 384 717.668 T 768 740.472 T 1152 549.667 T 1536 537.443 T 1920 316.861 L 1920 0 Z" fill="url(#lg-0.9552540684099136)" opacity="0.4" style="opacity:0.4;animation-play-state:paused" ></path>
<path d="M 0 0 L 0 859.997 Q 192 763.43 384 725.01 T 768 583.702 T 1152 540.995 T 1536 482.681 T 1920 406.455 L 1920 0 Z" fill="url(#lg-0.9552540684099136)" opacity="0.4" style="opacity:0.4;animation-play-state:paused" ></path>
<path d="M 0 0 L 0 783.642 Q 192 749.226 384 710.817 T 768 642.451 T 1152 488.93 T 1536 439.497 T 1920 325.533 L 1920 0 Z" fill="url(#lg-0.9552540684099136)" opacity="0.4" style="opacity:0.4;animation-play-state:paused" ></path>
<path d="M 0 0 L 0 779.732 Q 192 698.382 384 676.552 T 768 613.06 T 1152 611.403 T 1536 409.811 T 1920 379.615 L 1920 0 Z" fill="url(#lg-0.9552540684099136)" opacity="0.4" style="opacity:0.4;animation-play-state:paused" ></path>
<path d="M 0 0 L 0 784.453 Q 192 772.682 384 732.889 T 768 673.027 T 1152 601.859 T 1536 552.749 T 1920 361.656 L 1920 0 Z" fill="url(#lg-0.9552540684099136)" opacity="0.4" style="opacity:0.4;animation-play-state:paused" ></path></g></svg>